<svg xmlns="http://www.w3.org/2000/svg" width="195.291" height="223.189" viewBox="0 0 195.291 223.189">
  <path id="bell-solid" d="M97.645,223.189a27.894,27.894,0,0,0,27.886-27.9H69.759A27.894,27.894,0,0,0,97.645,223.189Zm93.892-65.261c-8.422-9.05-24.18-22.663-24.18-67.258,0-33.871-23.749-60.985-55.771-67.637V13.949a13.941,13.941,0,1,0-27.881,0v9.085C51.682,29.686,27.933,56.8,27.933,90.671c0,44.594-15.758,58.208-24.18,67.258A13.62,13.62,0,0,0,0,167.392a13.962,13.962,0,0,0,13.993,13.949H181.3a13.959,13.959,0,0,0,13.993-13.949A13.612,13.612,0,0,0,191.537,157.928Z" transform="translate(0)" fill="#e66757"/>
</svg>
