<svg xmlns="http://www.w3.org/2000/svg" width="264.629" height="264.629" viewBox="0 0 264.629 264.629">
  <g id="Inbox" transform="translate(-3274.342 -8346.346)">
    <g id="Path_63" data-name="Path 63" transform="translate(2128)" fill="none" stroke-linecap="round" stroke-linejoin="round">
      <path d="M1166.342,8590.975h224.629V8478.66l-41.4-112.314H1208.82l-42.478,112.314Z" stroke="none"/>
      <path d="M 1390.971069335938 8590.974609375 L 1390.971069335938 8478.66015625 L 1349.573120117188 8366.345703125 L 1208.820068359375 8366.345703125 L 1166.342163085938 8478.66015625 L 1166.342163085938 8590.974609375 L 1390.971069335938 8590.974609375 M 1390.971069335938 8610.974609375 L 1166.342163085938 8610.974609375 C 1155.296508789063 8610.974609375 1146.342163085938 8602.0205078125 1146.342163085938 8590.974609375 L 1146.342163085938 8478.66015625 C 1146.342163085938 8476.2431640625 1146.7802734375 8473.845703125 1147.635375976563 8471.5849609375 L 1190.11328125 8359.2705078125 C 1193.05517578125 8351.4921875 1200.503662109375 8346.345703125 1208.820068359375 8346.345703125 L 1349.573120117188 8346.345703125 C 1357.951171875 8346.345703125 1365.44140625 8351.5673828125 1368.338989257813 8359.4287109375 L 1409.736938476563 8471.7431640625 C 1410.55322265625 8473.9580078125 1410.971069335938 8476.2998046875 1410.971069335938 8478.66015625 L 1410.971069335938 8590.974609375 C 1410.971069335938 8602.0205078125 1402.016723632813 8610.974609375 1390.971069335938 8610.974609375 Z" stroke="none" fill="#2772db"/>
    </g>
    <path id="Path_64" data-name="Path 64" d="M1194.587,8507.211h55.659l14.4,27.137h28.245l13.568-27.137h56.49" transform="translate(2128 -3)" fill="none" stroke="#2772db" stroke-linecap="round" stroke-linejoin="round" stroke-width="20"/>
  </g>
</svg>
