<svg xmlns="http://www.w3.org/2000/svg" width="264.629" height="263.189" viewBox="0 0 264.629 263.189">
  <g id="Stats" transform="translate(-3274.342 -8824.763)">
    <g id="Path_65" data-name="Path 65" transform="translate(2127.28)" fill="none" stroke-linecap="round" stroke-linejoin="round">
      <path d="M1167.062,8844.763h224.629v223.189H1167.062Z" stroke="none"/>
      <path d="M 1167.062377929688 8844.7626953125 L 1167.062377929688 9067.9521484375 L 1391.69140625 9067.9521484375 L 1391.69140625 8844.7626953125 L 1167.062377929688 8844.7626953125 M 1167.062377929688 8824.7626953125 L 1391.69140625 8824.7626953125 C 1402.737060546875 8824.7626953125 1411.69140625 8833.716796875 1411.69140625 8844.7626953125 L 1411.69140625 9067.9521484375 C 1411.69140625 9078.998046875 1402.737060546875 9087.9521484375 1391.69140625 9087.9521484375 L 1167.062377929688 9087.9521484375 C 1156.0166015625 9087.9521484375 1147.062377929688 9078.998046875 1147.062377929688 9067.9521484375 L 1147.062377929688 8844.7626953125 C 1147.062377929688 8833.716796875 1156.0166015625 8824.7626953125 1167.062377929688 8824.7626953125 Z" stroke="none" fill="#2acdb0"/>
    </g>
    <path id="Path_67" data-name="Path 67" d="M1208.657,8900.24H1352.25" transform="translate(2128.461 124)" fill="none" stroke="#2acdb0" stroke-linecap="round" stroke-width="20"/>
    <g id="Lines" transform="translate(9.539)">
      <path id="Path_68" data-name="Path 68" d="M3337.118,8997.931v-81.152" transform="translate(0 -8)" fill="none" stroke="#2acdb0" stroke-linecap="round" stroke-width="20"/>
      <path id="Path_69" data-name="Path 69" d="M3337.118,8957.354v-40.576" transform="translate(40 32.576)" fill="none" stroke="#2acdb0" stroke-linecap="round" stroke-width="20"/>
      <path id="Path_70" data-name="Path 70" d="M3337.118,8979.618v-62.84" transform="translate(80 10.313)" fill="none" stroke="#2acdb0" stroke-linecap="round" stroke-width="20"/>
      <path id="Path_71" data-name="Path 71" d="M3337.118,9014.761v-97.982" transform="translate(120 -24.831)" fill="none" stroke="#2acdb0" stroke-linecap="round" stroke-width="20"/>
    </g>
  </g>
</svg>
