<svg xmlns="http://www.w3.org/2000/svg" width="509.936" height="454.963" viewBox="0 0 509.936 454.963">
  <g id="Group_1" data-name="Group 1" transform="matrix(0.819, 0.574, -0.574, 0.819, 206.045, -213.425)">
    <path id="Rectangle_2" data-name="Rectangle 2" d="M20,0H176.156a0,0,0,0,1,0,0V122.331a0,0,0,0,1,0,0H20a20,20,0,0,1-20-20V20A20,20,0,0,1,20,0Z" transform="translate(118 405.42)" fill="#398fff"/>
    <path id="Rectangle_1" data-name="Rectangle 1" d="M20,0h82.331a20,20,0,0,1,20,20V449.751a20,20,0,0,1-20,20H0a0,0,0,0,1,0,0V20A20,20,0,0,1,20,0Z" transform="translate(289.263 58)" fill="#006fff"/>
  </g>
</svg>
