<svg xmlns="http://www.w3.org/2000/svg" width="500" height="500" viewBox="0 0 500 500">
  <path id="checkmark" d="M446.429,32H53.571A53.571,53.571,0,0,0,0,85.571V478.429A53.571,53.571,0,0,0,53.571,532H446.429A53.571,53.571,0,0,0,500,478.429V85.571A53.571,53.571,0,0,0,446.429,32Zm0,446.429H53.571V85.571H446.429ZM406.4,208.647,213.78,399.723a13.393,13.393,0,0,1-18.94-.076L93.522,297.509a13.393,13.393,0,0,1,.077-18.941l25.356-25.152a13.392,13.392,0,0,1,18.94.077l66.732,67.273L362.386,164.276a13.393,13.393,0,0,1,18.94.076l25.152,25.355a13.394,13.394,0,0,1-.076,18.941Z" transform="translate(0 -32)" fill="#5297ff"/>
</svg>
