<svg xmlns="http://www.w3.org/2000/svg" width="500" height="500" viewBox="0 0 500 500">
  <path id="globe-americas-solid" d="M250,8C111.925,8,0,119.925,0,258S111.925,508,250,508,500,396.075,500,258,388.075,8,250,8Zm82.954,360.484c-3.931,3.911-8.054,8.014-11.4,11.371a24.09,24.09,0,0,0-6.22,10.8c-1.522,5.706-2.752,11.472-4.808,17.006l-17.53,47.228A201.46,201.46,0,0,1,250,459.613v-27.6c1.7-12.722-7.7-36.552-22.812-51.663a32.259,32.259,0,0,1-9.446-22.812V325.268a32.152,32.152,0,0,0-16.593-28.2c-14.486-8.014-35.091-19.214-49.2-26.321a145.318,145.318,0,0,1-31.905-21.925l-.806-.726a115.717,115.717,0,0,1-18.206-20.907c-9.456-13.881-24.859-36.714-34.869-51.552A202.709,202.709,0,0,1,170.192,72.929l24.2,12.107a16.129,16.129,0,0,0,23.347-14.425V59.22a201.466,201.466,0,0,1,24.587-2.44l28.528,28.528a16.129,16.129,0,0,1,0,22.813l-4.728,4.718-10.423,10.423a8.068,8.068,0,0,0,0,11.4l4.728,4.728a8.068,8.068,0,0,1,0,11.4l-8.065,8.065a8.073,8.073,0,0,1-5.706,2.359H237.6a8.059,8.059,0,0,0-5.625,2.288l-10,9.728a8.073,8.073,0,0,0-1.593,9.385L236.1,214.058a8.066,8.066,0,0,1-7.208,11.673h-5.685a8.055,8.055,0,0,1-5.282-1.976l-9.355-8.125a16.146,16.146,0,0,0-15.675-3.125L161.472,222.98a12.049,12.049,0,0,0-1.573,22.208l11.169,5.585a68.269,68.269,0,0,0,30.554,7.218c10.6,0,22.772,27.51,32.258,32.258h67.288a32.277,32.277,0,0,1,22.813,9.446l13.8,13.8a30.749,30.749,0,0,1,9,21.744,46.911,46.911,0,0,1-13.831,33.246ZM420.363,276.4a24.2,24.2,0,0,1-14.264-10.05l-18.125-27.187a24.163,24.163,0,0,1,0-26.835l19.748-29.617a24.167,24.167,0,0,1,9.314-8.216l13.085-6.542a195.3,195.3,0,0,1,19.657,115.8Z" transform="translate(0 -8)" fill="#5297ff"/>
</svg>
