<svg xmlns="http://www.w3.org/2000/svg" width="500" height="500" viewBox="0 0 500 500">
  <path id="plus" d="M446.429,32H53.571A53.585,53.585,0,0,0,0,85.571V478.429A53.585,53.585,0,0,0,53.571,532H446.429A53.585,53.585,0,0,0,500,478.429V85.571A53.585,53.585,0,0,0,446.429,32ZM410.714,313.25a13.432,13.432,0,0,1-13.393,13.393H294.643V429.321a13.432,13.432,0,0,1-13.393,13.393h-62.5a13.432,13.432,0,0,1-13.393-13.393V326.643H102.679A13.432,13.432,0,0,1,89.286,313.25v-62.5a13.432,13.432,0,0,1,13.393-13.393H205.357V134.679a13.432,13.432,0,0,1,13.393-13.393h62.5a13.432,13.432,0,0,1,13.393,13.393V237.357H397.321a13.432,13.432,0,0,1,13.393,13.393Z" transform="translate(0 -32)" fill="#707070"/>
</svg>
