<svg xmlns="http://www.w3.org/2000/svg" width="500" height="499.995" viewBox="0 0 500 499.995">
  <path id="paper-plane-regular" d="M429.655,6.348,23.437,240.626C-10.154,260.059-6.932,309.766,29,324.512L140.615,370.7v82.422c0,45.313,57.808,63.965,84.564,27.93l42.77-57.715,109.269,45.117a46.972,46.972,0,0,0,64.253-36.23l58-378.125c5.957-39.16-36.032-67.187-69.819-47.754ZM187.487,453.125V390.04l35.739,14.746Zm207.6-28.027L244.9,363.086l136.9-197.559c10.448-15.137-9.277-32.715-23.143-20.7L152.138,324.805,46.872,281.251,453.091,46.876Z" transform="translate(-0.043 -0.025)" fill="#707070"/>
</svg>
