<svg xmlns="http://www.w3.org/2000/svg" width="500" height="437.5" viewBox="0 0 500 437.5">
  <path id="settings" d="M484.375,375.75H156.25V360.125A15.671,15.671,0,0,0,140.625,344.5h-31.25A15.671,15.671,0,0,0,93.75,360.125V375.75H15.625A15.671,15.671,0,0,0,0,391.375v31.25A15.671,15.671,0,0,0,15.625,438.25H93.75v15.625A15.671,15.671,0,0,0,109.375,469.5h31.25a15.671,15.671,0,0,0,15.625-15.625V438.25H484.375A15.671,15.671,0,0,0,500,422.625v-31.25A15.671,15.671,0,0,0,484.375,375.75Zm0-156.25H406.25V203.875a15.671,15.671,0,0,0-15.625-15.625h-31.25a15.671,15.671,0,0,0-15.625,15.625V219.5H15.625A15.671,15.671,0,0,0,0,235.125v31.25A15.671,15.671,0,0,0,15.625,282H343.75v15.625a15.671,15.671,0,0,0,15.625,15.625h31.25a15.671,15.671,0,0,0,15.625-15.625V282h78.125A15.671,15.671,0,0,0,500,266.375v-31.25A15.671,15.671,0,0,0,484.375,219.5Zm0-156.25H281.25V47.625A15.671,15.671,0,0,0,265.625,32h-31.25A15.671,15.671,0,0,0,218.75,47.625V63.25H15.625A15.671,15.671,0,0,0,0,78.875v31.25A15.671,15.671,0,0,0,15.625,125.75H218.75v15.625A15.671,15.671,0,0,0,234.375,157h31.25a15.671,15.671,0,0,0,15.625-15.625V125.75H484.375A15.671,15.671,0,0,0,500,110.125V78.875A15.671,15.671,0,0,0,484.375,63.25Z" transform="translate(0 -32)" fill="#5297ff"/>
</svg>
