<svg xmlns="http://www.w3.org/2000/svg" width="437.5" height="500" viewBox="0 0 437.5 500">
  <path id="trash-solid" d="M421.875,31.25H304.687l-9.18-18.262A23.438,23.438,0,0,0,274.512,0H162.891a23.164,23.164,0,0,0-20.9,12.988l-9.18,18.262H15.625A15.625,15.625,0,0,0,0,46.875v31.25A15.625,15.625,0,0,0,15.625,93.75h406.25A15.625,15.625,0,0,0,437.5,78.125V46.875A15.625,15.625,0,0,0,421.875,31.25ZM51.953,456.055A46.875,46.875,0,0,0,98.73,500H338.769a46.874,46.874,0,0,0,46.777-43.939L406.25,125h-375Z" transform="translate(0 0)" fill="#707070"/>
</svg>
