<svg xmlns="http://www.w3.org/2000/svg" width="437.5" height="500" viewBox="0 0 437.5 500">
  <path id="user" d="M306.25,296.875c-28.027,0-41.5,15.625-87.5,15.625s-59.375-15.625-87.5-15.625A131.284,131.284,0,0,0,0,428.125v25A46.887,46.887,0,0,0,46.875,500h343.75A46.887,46.887,0,0,0,437.5,453.125v-25A131.284,131.284,0,0,0,306.25,296.875Zm84.375,156.25H46.875v-25A84.522,84.522,0,0,1,131.25,343.75c14.258,0,37.4,15.625,87.5,15.625,50.488,0,73.145-15.625,87.5-15.625a84.522,84.522,0,0,1,84.375,84.375ZM218.75,281.25A140.625,140.625,0,1,0,78.125,140.625,140.661,140.661,0,0,0,218.75,281.25Zm0-234.375A93.75,93.75,0,1,1,125,140.625,93.9,93.9,0,0,1,218.75,46.875Z" fill="#5297ff"/>
</svg>
