<svg xmlns="http://www.w3.org/2000/svg" width="437.5" height="500" viewBox="0 0 437.5 500">
  <path id="work" d="M125,144.531V105.469A11.753,11.753,0,0,1,136.719,93.75h39.063A11.753,11.753,0,0,1,187.5,105.469v39.063a11.753,11.753,0,0,1-11.719,11.719H136.719A11.753,11.753,0,0,1,125,144.531ZM261.719,156.25h39.063A11.753,11.753,0,0,0,312.5,144.531V105.469A11.753,11.753,0,0,0,300.781,93.75H261.719A11.753,11.753,0,0,0,250,105.469v39.063A11.753,11.753,0,0,0,261.719,156.25Zm-125,93.75h39.063A11.753,11.753,0,0,0,187.5,238.281V199.219A11.753,11.753,0,0,0,175.781,187.5H136.719A11.753,11.753,0,0,0,125,199.219v39.063A11.753,11.753,0,0,0,136.719,250Zm125,0h39.063A11.753,11.753,0,0,0,312.5,238.281V199.219A11.753,11.753,0,0,0,300.781,187.5H261.719A11.753,11.753,0,0,0,250,199.219v39.063A11.753,11.753,0,0,0,261.719,250ZM187.5,332.031V292.969a11.753,11.753,0,0,0-11.719-11.719H136.719A11.753,11.753,0,0,0,125,292.969v39.063a11.753,11.753,0,0,0,11.719,11.719h39.063A11.753,11.753,0,0,0,187.5,332.031Zm74.219,11.719h39.063A11.753,11.753,0,0,0,312.5,332.031V292.969a11.753,11.753,0,0,0-11.719-11.719H261.719A11.753,11.753,0,0,0,250,292.969v39.063A11.753,11.753,0,0,0,261.719,343.75ZM437.5,464.844V500H0V464.844a11.753,11.753,0,0,1,11.719-11.719H30.762V23.438A23.381,23.381,0,0,1,54.2,0H383.3a23.381,23.381,0,0,1,23.438,23.438V453.125h19.043A11.753,11.753,0,0,1,437.5,464.844Zm-359.863-12.7H187.5v-65.43A11.753,11.753,0,0,1,199.219,375h39.063A11.753,11.753,0,0,1,250,386.719v65.43H359.863V47.852L78.125,46.875Z" fill="#707070"/>
</svg>
