<svg xmlns="http://www.w3.org/2000/svg" xmlns:xlink="http://www.w3.org/1999/xlink" width="860.782" height="656.195" viewBox="0 0 860.782 656.195">
  <defs>
    <linearGradient id="linear-gradient" x1="0.822" y1="0.032" x2="0.057" y2="0.968" gradientUnits="objectBoundingBox">
      <stop offset="0" stop-color="#a5c4ee"/>
      <stop offset="1" stop-color="#006dfb"/>
    </linearGradient>
    <filter id="Rectangle_3" x="193" y="359.241" width="188.392" height="188.392" filterUnits="userSpaceOnUse">
      <feOffset input="SourceAlpha"/>
      <feGaussianBlur stdDeviation="5" result="blur"/>
      <feFlood flood-opacity="0.349"/>
      <feComposite operator="in" in2="blur"/>
      <feComposite in="SourceGraphic"/>
    </filter>
    <linearGradient id="linear-gradient-2" x1="0.122" y1="0.008" x2="0.892" y2="0.983" gradientUnits="objectBoundingBox">
      <stop offset="0" stop-color="#004aaa"/>
      <stop offset="1" stop-color="#006fff"/>
    </linearGradient>
  </defs>
  <g id="check.v2" transform="translate(-37.299 -186.386)">
    <path id="Rectangle_2" data-name="Rectangle 2" d="M50,0H150a50,50,0,0,1,50,50V294a0,0,0,0,1,0,0H0a0,0,0,0,1,0,0V50A50,50,0,0,1,50,0Z" transform="translate(37.299 496.22) rotate(-45)" fill="url(#linear-gradient)"/>
    <g transform="matrix(1, 0, 0, 1, 37.3, 186.39)" filter="url(#Rectangle_3)">
      <rect id="Rectangle_3-2" data-name="Rectangle 3" width="196" height="28" transform="translate(208 512.83) rotate(-45)"/>
    </g>
    <path id="Rectangle_1" data-name="Rectangle 1" d="M50,0H150a50,50,0,0,1,50,50V678a50,50,0,0,1-50,50H0a0,0,0,0,1,0,0V50A50,50,0,0,1,50,0Z" transform="translate(756.66 186.386) rotate(45)" fill="url(#linear-gradient-2)"/>
  </g>
</svg>
