<svg xmlns="http://www.w3.org/2000/svg" width="485.125" height="431.295" viewBox="0 0 485.125 431.295">
  <g id="Group_1" data-name="Group 1" transform="translate(-7.5 -34.839)">
    <path id="Path_3" data-name="Path 3" d="M31.25,118.125H329.375L397.5,57.5l76.25,76.25L356.875,272.5,353.75,440.625H26.875Z" fill="#eecfff"/>
    <path id="edit-regular" d="M338.837,290.48l26.952-26.952a6.771,6.771,0,0,1,11.539,4.8V390.792A40.438,40.438,0,0,1,336.9,431.22H40.428A40.438,40.438,0,0,1,0,390.792V94.32A40.438,40.438,0,0,1,40.428,53.892H270.783a6.781,6.781,0,0,1,4.8,11.539L248.632,92.383a6.677,6.677,0,0,1-4.8,1.937H40.428V390.792H336.9V295.2A6.624,6.624,0,0,1,338.837,290.48Zm131.9-169.966L249.558,341.689l-76.139,8.422A34.8,34.8,0,0,1,135.013,311.7l8.423-76.139L364.61,14.391a49.157,49.157,0,0,1,69.654,0l36.385,36.385a49.335,49.335,0,0,1,.084,69.738ZM387.519,146.54,338.584,97.6,182.094,254.179l-6.148,55,55-6.148ZM442.1,79.412,405.711,43.027a8.794,8.794,0,0,0-12.465,0L367.221,69.053l48.935,48.935,26.025-26.025A8.974,8.974,0,0,0,442.1,79.412Z" transform="translate(7.5 34.914)" fill="#c062f5"/>
    <path id="Path_1" data-name="Path 1" d="M240.881,88.71H337l-33.5,40.736-70.963-.421Z" fill="#c062f5"/>
    <path id="Path_2" data-name="Path 2" d="M212.064,88.71H337l-33.5,40.736-70.963-.421Z" transform="translate(473.846 27.311) rotate(90)" fill="#c062f5"/>
  </g>
</svg>
