<svg xmlns="http://www.w3.org/2000/svg" width="495" height="495" viewBox="0 0 495 495">
  <g id="Group_1" data-name="Group 1" transform="translate(-3 -2.5)">
    <path id="Path_1" data-name="Path 1" d="M51,106c-5,5,126-30,126-30L288,94,466,76l-7,273L321,379,215,356,51,379Z" fill="#ededed"/>
    <path id="flag-regular" d="M325.012,77.344c-47.5,0-90.207-30.937-156.537-30.937A214.572,214.572,0,0,0,90.434,61.071,46.407,46.407,0,1,0,23.2,86.588V479.531A15.468,15.468,0,0,0,38.672,495H54.141a15.468,15.468,0,0,0,15.469-15.469V398.859c36.612-16.7,68.893-27.609,123.582-27.609,47.5,0,90.207,30.938,156.537,30.938,56.537,0,98.586-21.866,124.28-38.654A46.369,46.369,0,0,0,495,324.7V92.752c0-33.315-34.093-55.85-64.683-42.652C395.607,65.074,359.3,77.344,325.012,77.344Zm123.582,247.5c-21.06,14.9-58.8,30.938-98.866,30.938-57.955,0-98.615-30.937-156.537-30.937-41.921,0-93.179,9.091-123.582,23.2V123.75c21.061-14.9,58.8-30.937,98.866-30.937,57.955,0,98.615,30.938,156.537,30.938,41.834,0,93.122-16.789,123.582-30.937Z" transform="translate(3 2.5)" fill="#707070"/>
  </g>
</svg>
