<svg xmlns="http://www.w3.org/2000/svg" width="457.813" height="457.061" viewBox="0 0 457.813 457.061">
  <g id="Save" transform="translate(-16.09 -21.129)">
    <path id="Path_1" data-name="Path 1" d="M0,0C23.563-23.962,139.73-31.6,234.893-26,296.136-7.864,375.284,60.96,384.867,82.4,396.036,182.316,388.685,336.662,362,362c-37.585,35.687-326.165,36.814-362,0S-38.564,39.217,0,0Z" transform="translate(64 69)" fill="none" stroke="#000" stroke-width="40"/>
    <path id="Path_37" data-name="Path 37" d="M139.9,479.292s-5.735-147.054,0-153.67,185.826-6.615,191.561,0,0,153.67,0,153.67" transform="translate(10 -21.102)" fill="none" stroke="#000" stroke-width="40"/>
    <path id="Path_38" data-name="Path 38" d="M139.371,386.666s-4.549-61.188,0-63.941,147.4-2.753,151.951,0,0,63.941,0,63.941" transform="translate(460.693 446.327) rotate(180)" fill="none" stroke="#000" stroke-width="40"/>
  </g>
</svg>
