<svg xmlns="http://www.w3.org/2000/svg" width="399.109" height="456.125" viewBox="0 0 399.109 456.125">
  <g id="Group_1" data-name="Group 1" transform="translate(-50.445 -21.875)">
    <path id="Path_1" data-name="Path 1" d="M97.5,120.625l55-6.875,31.25-78.125S322.5,42.5,325,42.5s9.375,56.875,9.375,56.875l73.75,30L371.25,453.125H123.75Z" fill="#ffafaa"/>
    <path id="trash-solid" d="M384.855,71.27H311.448l-30.29-50.512A42.762,42.762,0,0,0,244.454,0h-89.8a42.762,42.762,0,0,0-36.7,20.757L87.662,71.27H14.254A14.254,14.254,0,0,0,0,85.523V99.777a14.254,14.254,0,0,0,14.254,14.254H28.508l18.886,302a42.762,42.762,0,0,0,42.673,40.089H309.043a42.76,42.76,0,0,0,42.672-40.084L370.6,114.031h14.254a14.254,14.254,0,0,0,14.254-14.254V85.523A14.254,14.254,0,0,0,384.855,71.27Zm-230.2-28.508h89.8l17.1,28.508H137.55Zm154.388,370.6H90.076L71.368,114.031H327.76Z" transform="translate(50.445 21.875)" fill="#f56c62"/>
  </g>
</svg>
