<svg xmlns="http://www.w3.org/2000/svg" width="447.811" height="446.94" viewBox="0 0 447.811 446.94">
  <g id="Inbox" transform="translate(-26.09 -26.249)">
    <path id="Path_1" data-name="Path 1" d="M0,0C38.564-39.217,325.186-34.708,362,0s37.585,326.313,0,362S35.835,398.814,0,362-38.564,39.217,0,0Z" transform="translate(69 69)" fill="none" stroke="#4169e1" stroke-width="30"/>
    <path id="Path_14" data-name="Path 14" d="M40.717,267.791H148.773l39.934,32.887H316.338l36.8-32.887H455.715L433.008,417.347l-92.4,38.368-207.5-3.915L68.905,423.611Z" fill="#4169e1" opacity="0.05"/>
    <path id="Path_2" data-name="Path 2" d="M41.861,250s99.916-8.558,107.9,0,23.251,20.025,31.838,29.467,125.784,10.443,136.786,0S338.8,259.255,349.629,250s106.716,0,106.716,0" transform="translate(1 19)" fill="none" stroke="#4169e1" stroke-width="30"/>
  </g>
</svg>
