<svg xmlns="http://www.w3.org/2000/svg" width="385" height="370" viewBox="0 0 385 370">
  <g id="Log" transform="translate(-7059 -6702)">
    <g id="Rectangle_44" data-name="Rectangle 44" transform="translate(7059 6702)" fill="none" stroke="#47bb5a" stroke-width="30">
      <rect width="385" height="110" rx="50" stroke="none"/>
      <rect x="15" y="15" width="355" height="80" rx="35" fill="none"/>
    </g>
    <g id="Path_49" data-name="Path 49" transform="translate(7093 6785)" fill="none">
      <path d="M50,0H266a50,50,0,0,1,50,50V237a50,50,0,0,1-50,50H50A50,50,0,0,1,0,237V50A50,50,0,0,1,50,0Z" stroke="none"/>
      <path d="M 50 30 C 38.971923828125 30 30 38.971923828125 30 50 L 30 237 C 30 248.028076171875 38.971923828125 257 50 257 L 266 257 C 277.028076171875 257 286 248.028076171875 286 237 L 286 50 C 286 38.971923828125 277.028076171875 30 266 30 L 50 30 M 50 0 L 266 0 C 293.6142272949219 0 316 22.38577270507813 316 50 L 316 237 C 316 264.6142272949219 293.6142272949219 287 266 287 L 50 287 C 22.38577270507813 287 0 264.6142272949219 0 237 L 0 50 C 0 22.38577270507813 22.38577270507813 0 50 0 Z" stroke="none" fill="#47bb5a"/>
    </g>
    <rect id="Rectangle_46" data-name="Rectangle 46" width="106" height="40" rx="20" transform="translate(7198 6861)" fill="#47bb5a"/>
  </g>
</svg>
