<svg xmlns="http://www.w3.org/2000/svg" width="264.629" height="263.189" viewBox="0 0 264.629 263.189">
  <g id="Links" transform="translate(-3274.342 -8824.763)">
    <g id="Path_65" data-name="Path 65" transform="translate(2127.28)" fill="none" stroke-linecap="round" stroke-linejoin="round">
      <path d="M1167.062,8844.763h224.629v223.189H1167.062Z" stroke="none"/>
      <path d="M 1167.062377929688 8844.7626953125 L 1167.062377929688 9067.9521484375 L 1391.69140625 9067.9521484375 L 1391.69140625 8844.7626953125 L 1167.062377929688 8844.7626953125 M 1167.062377929688 8824.7626953125 L 1391.69140625 8824.7626953125 C 1402.737060546875 8824.7626953125 1411.69140625 8833.716796875 1411.69140625 8844.7626953125 L 1411.69140625 9067.9521484375 C 1411.69140625 9078.998046875 1402.737060546875 9087.9521484375 1391.69140625 9087.9521484375 L 1167.062377929688 9087.9521484375 C 1156.0166015625 9087.9521484375 1147.062377929688 9078.998046875 1147.062377929688 9067.9521484375 L 1147.062377929688 8844.7626953125 C 1147.062377929688 8833.716796875 1156.0166015625 8824.7626953125 1167.062377929688 8824.7626953125 Z" stroke="none" fill="#0bb34a"/>
    </g>
    <path id="link-solid" d="M105.313,59.777a48.985,48.985,0,0,1,.116,69.193c-.035.039-.077.081-.116.119L83.645,150.757A49.011,49.011,0,0,1,14.333,81.445L26.3,69.481a5.155,5.155,0,0,1,8.8,3.42,59.415,59.415,0,0,0,3.124,17A5.19,5.19,0,0,1,37,95.256l-4.22,4.22A23.216,23.216,0,1,0,65.4,132.517l21.668-21.665a23.21,23.21,0,0,0,0-32.834,24.154,24.154,0,0,0-3.334-2.763A5.171,5.171,0,0,1,81.5,71.19a12.843,12.843,0,0,1,3.772-9.611l6.789-6.789a5.18,5.18,0,0,1,6.637-.558,49.167,49.167,0,0,1,6.617,5.545Zm45.443-45.445a49.066,49.066,0,0,0-69.312,0L59.776,36c-.039.039-.081.081-.116.119a49.021,49.021,0,0,0,6.733,74.737,5.18,5.18,0,0,0,6.637-.558l6.789-6.789A12.844,12.844,0,0,0,83.59,93.9a5.171,5.171,0,0,0-2.24-4.065,24.154,24.154,0,0,1-3.334-2.763,23.21,23.21,0,0,1,0-32.834L99.684,32.572a23.216,23.216,0,1,1,32.621,33.041l-4.22,4.22a5.19,5.19,0,0,0-1.22,5.356,59.414,59.414,0,0,1,3.124,17,5.155,5.155,0,0,0,8.8,3.42l11.964-11.964a49.063,49.063,0,0,0,0-69.312Z" transform="translate(3324.112 8873.813)" fill="#0bb34a"/>
  </g>
</svg>
