<svg xmlns="http://www.w3.org/2000/svg" width="447.811" height="446.94" viewBox="0 0 447.811 446.94">
  <g id="Calendar" transform="translate(-25.09 -25.997)">
    <path id="Path_21" data-name="Path 21" d="M0,0C38.564-39.217,325.186-34.708,362,0s37.585,326.313,0,362S35.835,398.814,0,362-38.564,39.217,0,0Z" transform="translate(68 68.748)" fill="none" stroke="#fa396d" stroke-width="30"/>
    <path id="Path_15" data-name="Path 15" d="M558.431,142.916,579.6,82.044l51.609-30.436,131.006-9.263,97.924,9.263,68.811,22.5L948.8,101.894l9.263,41.022Z" transform="translate(-507)" fill="#fa396d" opacity="0.05"/>
    <path id="Path_3" data-name="Path 3" d="M53.813,141.064H444.319" fill="none" stroke="#fa396d" stroke-width="30"/>
    <g id="Dates" transform="translate(-3 33)">
      <path id="Path_5" data-name="Path 5" d="M-30.614-30.806c7.161-7.058,46.541-7.251,53.7,0s7.251,46.541,0,53.7-46.644,7.161-53.7,0S-37.775-23.748-30.614-30.806Z" transform="translate(139 212)" fill="#fa396d"/>
      <path id="Path_50" data-name="Path 50" d="M-30.614-30.806c7.161-7.058,46.541-7.251,53.7,0s7.251,46.541,0,53.7-46.644,7.161-53.7,0S-37.775-23.748-30.614-30.806Z" transform="translate(258 212)" fill="#fa396d"/>
      <path id="Path_51" data-name="Path 51" d="M-30.614-30.806c7.161-7.058,46.541-7.251,53.7,0s7.251,46.541,0,53.7-46.644,7.161-53.7,0S-37.775-23.748-30.614-30.806Z" transform="translate(258 312)" fill="#fa396d"/>
      <path id="Path_52" data-name="Path 52" d="M-30.614-30.806c7.161-7.058,46.541-7.251,53.7,0s7.251,46.541,0,53.7-46.644,7.161-53.7,0S-37.775-23.748-30.614-30.806Z" transform="translate(377 212)" fill="#fa396d"/>
      <path id="Path_53" data-name="Path 53" d="M-30.614-30.806c7.161-7.058,46.541-7.251,53.7,0s7.251,46.541,0,53.7-46.644,7.161-53.7,0S-37.775-23.748-30.614-30.806Z" transform="translate(377 312)" fill="#fa396d"/>
      <path id="Path_54" data-name="Path 54" d="M-30.614-30.806c7.161-7.058,46.541-7.251,53.7,0s7.251,46.541,0,53.7-46.644,7.161-53.7,0S-37.775-23.748-30.614-30.806Z" transform="translate(139 312)" fill="#fa396d"/>
    </g>
  </g>
</svg>
