<svg xmlns="http://www.w3.org/2000/svg" width="264" height="264" viewBox="0 0 264 264">
  <g id="Links" transform="translate(19.967 19.785)">
    <g id="Rectangle_74" data-name="Rectangle 74" transform="translate(0.033 0.215)" fill="none" stroke="#0bb34a" stroke-width="20">
      <rect width="224" height="224" rx="50" stroke="none"/>
      <rect x="-10" y="-10" width="244" height="244" rx="60" fill="none"/>
    </g>
    <path id="link-solid" d="M105.313,59.777a48.985,48.985,0,0,1,.116,69.193c-.035.039-.077.081-.116.119L83.645,150.757A49.011,49.011,0,0,1,14.333,81.445L26.3,69.481a5.155,5.155,0,0,1,8.8,3.42,59.415,59.415,0,0,0,3.124,17A5.19,5.19,0,0,1,37,95.256l-4.22,4.22A23.216,23.216,0,1,0,65.4,132.517l21.668-21.665a23.21,23.21,0,0,0,0-32.834,24.154,24.154,0,0,0-3.334-2.763A5.171,5.171,0,0,1,81.5,71.19a12.843,12.843,0,0,1,3.772-9.611l6.789-6.789a5.18,5.18,0,0,1,6.637-.558,49.167,49.167,0,0,1,6.617,5.545Zm45.443-45.445a49.066,49.066,0,0,0-69.312,0L59.776,36c-.039.039-.081.081-.116.119a49.021,49.021,0,0,0,6.733,74.737,5.18,5.18,0,0,0,6.637-.558l6.789-6.789A12.844,12.844,0,0,0,83.59,93.9a5.171,5.171,0,0,0-2.24-4.065,24.154,24.154,0,0,1-3.334-2.763,23.21,23.21,0,0,1,0-32.834L99.684,32.572a23.216,23.216,0,1,1,32.621,33.041l-4.22,4.22a5.19,5.19,0,0,0-1.22,5.356,59.414,59.414,0,0,1,3.124,17,5.155,5.155,0,0,0,8.8,3.42l11.964-11.964a49.063,49.063,0,0,0,0-69.312Z" transform="translate(29.77 29.05)" fill="#0bb34a"/>
  </g>
</svg>
