<svg xmlns="http://www.w3.org/2000/svg" xmlns:xlink="http://www.w3.org/1999/xlink" width="1920" height="1080" viewBox="0 0 1920 1080">
  <defs>
    <linearGradient id="linear-gradient" y1="0.278" x2="0.954" y2="0.809" gradientUnits="objectBoundingBox">
      <stop offset="0" stop-color="#4895ef"/>
      <stop offset="1" stop-color="#4cc9f0"/>
    </linearGradient>
    <linearGradient id="linear-gradient-2" y1="0.242" x2="1" y2="0.547" gradientUnits="objectBoundingBox">
      <stop offset="0" stop-color="#3f37c9"/>
      <stop offset="1" stop-color="#4cc9f0"/>
    </linearGradient>
    <linearGradient id="linear-gradient-3" y1="0.192" x2="0.951" y2="0.862" gradientUnits="objectBoundingBox">
      <stop offset="0" stop-color="#3f37c9"/>
      <stop offset="1" stop-color="#480ca8"/>
    </linearGradient>
    <linearGradient id="linear-gradient-4" x1="0.925" y1="0.913" x2="0.042" y2="0.558" gradientUnits="objectBoundingBox">
      <stop offset="0" stop-color="#480ca8"/>
      <stop offset="1" stop-color="#ee2389"/>
    </linearGradient>
    <linearGradient id="linear-gradient-5" x1="0.376" y1="0.564" x2="0.224" y2="1.143" gradientUnits="objectBoundingBox">
      <stop offset="0" stop-color="#f72585"/>
      <stop offset="1" stop-color="#b5179e"/>
    </linearGradient>
    <linearGradient id="linear-gradient-6" x1="0.415" y1="-0.506" x2="1.376" y2="0.273" gradientUnits="objectBoundingBox">
      <stop offset="0" stop-color="#457cdc"/>
      <stop offset="1" stop-color="#3a0ca3"/>
    </linearGradient>
    <clipPath id="clip-Light_Theme">
      <rect width="1920" height="1080"/>
    </clipPath>
  </defs>
  <g id="Light_Theme" data-name="Light Theme" clip-path="url(#clip-Light_Theme)">
    <rect width="1920" height="1080" fill="#fff"/>
    <g id="Full_Design" data-name="Full Design">
      <g id="Design">
        <path id="Path_4" data-name="Path 4" d="M0,329.765,1920,608.882V343.868s-113.44-26.679-283.662-26.679-135.62-21.344-397.227-62.846-339.491-68.506-649.2-103.16S.28,115.729.28,115.729Z" fill="url(#linear-gradient)"/>
        <path id="Path_5" data-name="Path 5" d="M0,0V175.407s157.866-21.589,321.13-9.445c58.122,4.323,313.232,4.6,570.748,39.129,145.691,19.537,288.572,65.433,432.446,89.593,152.495,25.607,294.008,55.732,401.684,70.163C1843.162,380.548,1920,379.441,1920,379.441V0Z" fill="url(#linear-gradient-2)"/>
        <path id="Path_3" data-name="Path 3" d="M0,447.027l1920,439.32V504.833s-97.848-45.674-251.355-57.805c-74.2-5.864-166.746,25.042-251.359,0-61.9-18.321-149.729-57.689-226.5-69.366-114.5-17.417-203.641-80.057-323.709-107.9C730.043,237.976,563.771,240.926,466.3,223.514-13.7,137.769,0,104.049,0,104.049Z" fill="url(#linear-gradient-3)"/>
        <path id="Path_2" data-name="Path 2" d="M0,193.824s-11.514,27.455,393.076,160.715c70.293,23.152,170.922,59.5,281.319,77.074C780.54,448.512,895.982,446.507,986.543,474c73.254,22.241,122.459,61.1,181.123,92.488,72.414,38.74,151.313,70.342,211.953,96.342,132.006,56.6,215.59,40.27,350.685,80.927s189.7,81.7,189.7,81.7V1080H0Z" fill="url(#linear-gradient-4)"/>
        <path id="Path_1" data-name="Path 1" d="M0,355.724S129.886,474.063,458.337,613.4C582.82,666.2,927.731,710.4,1172.067,788.979c164.737,52.976,356.762,77.287,476.579,127.7C1821.813,989.528,1890.356,1080,1890.356,1080H0Z" fill="url(#linear-gradient-5)"/>
        <path id="Path_6" data-name="Path 6" d="M901.594,0H1920V301.7s-23.177-75.111-130.845-114.015c-63.564-22.968-174.139-1.406-263.111-15.787-90.691-14.658-159.839-65.229-229.784-85.95C1041.659,10.524,901.594,0,901.594,0Z" fill="url(#linear-gradient-6)"/>
      </g>
      <rect id="Rectangle_1" data-name="Rectangle 1" width="1920" height="1080" fill="#fff"/>
    </g>
  </g>
</svg>
