<svg xmlns="http://www.w3.org/2000/svg" width="457.811" height="456.94" viewBox="0 0 457.811 456.94">
  <g id="Calendar" transform="translate(-20.09 -20.997)">
    <path id="Path_21" data-name="Path 21" d="M0,0C38.564-39.217,325.186-34.708,362,0s37.585,326.313,0,362S35.835,398.814,0,362-38.564,39.217,0,0Z" transform="translate(68 68.748)" fill="none" stroke="#000" stroke-width="40"/>
    <path id="Path_15" data-name="Path 15" d="M558.431,142.916,579.6,82.044l51.609-30.436,131.006-9.263,97.924,9.263,68.811,22.5L948.8,101.894l9.263,41.022Z" transform="translate(-507)" opacity="0.05"/>
    <path id="Path_3" data-name="Path 3" d="M53.813,141.064H444.319" fill="none" stroke="#000" stroke-width="40"/>
    <g id="Dates" transform="translate(3 23)">
      <path id="Path_4" data-name="Path 4" d="M-29.344-29.529c8.866-8.738,57.617-8.976,66.483,0s8.976,57.617,0,66.483-57.744,8.866-66.483,0S-38.21-20.791-29.344-29.529Z" transform="translate(365.82 212)"/>
      <path id="Path_5" data-name="Path 5" d="M-29.344-29.529c8.866-8.738,57.617-8.976,66.483,0s8.976,57.617,0,66.483-57.744,8.866-66.483,0S-38.21-20.791-29.344-29.529Z" transform="translate(119 212)"/>
      <path id="Path_6" data-name="Path 6" d="M-29.344-29.529c8.866-8.738,57.617-8.976,66.483,0s8.976,57.617,0,66.483-57.744,8.866-66.483,0S-38.21-20.791-29.344-29.529Z" transform="translate(242.41 212)"/>
      <path id="Path_10" data-name="Path 10" d="M-29.344-29.529c8.866-8.738,57.617-8.976,66.483,0s8.976,57.617,0,66.483-57.744,8.866-66.483,0S-38.21-20.791-29.344-29.529Z" transform="translate(119 319.439)"/>
      <path id="Path_11" data-name="Path 11" d="M-29.344-29.529c8.866-8.738,57.617-8.976,66.483,0s8.976,57.617,0,66.483-57.744,8.866-66.483,0S-38.21-20.791-29.344-29.529Z" transform="translate(365.82 319.439)"/>
      <path id="Path_12" data-name="Path 12" d="M-29.344-29.529c8.866-8.738,57.617-8.976,66.483,0s8.976,57.617,0,66.483-57.744,8.866-66.483,0S-38.21-20.791-29.344-29.529Z" transform="translate(242.41 319.439)"/>
    </g>
  </g>
</svg>
