<svg xmlns="http://www.w3.org/2000/svg" xmlns:xlink="http://www.w3.org/1999/xlink" width="819" height="321" viewBox="0 0 819 321">
  <defs>
    <linearGradient id="linear-gradient" y1="0.487" x2="1.06" y2="0.516" gradientUnits="objectBoundingBox">
      <stop offset="0" stop-color="#2ce999"/>
      <stop offset="1" stop-color="#1b1c2b"/>
    </linearGradient>
  </defs>
  <g id="Success" transform="translate(-73 -288)">
    <rect id="Rectangle_1" data-name="Rectangle 1" width="819" height="321" rx="20" transform="translate(73 288)" fill="#1b1c2b"/>
    <rect id="Rectangle_2" data-name="Rectangle 2" width="420" height="321" rx="20" transform="translate(73 288)" opacity="0.13" fill="url(#linear-gradient)"/>
    <g id="Check">
      <circle id="Ellipse_1" data-name="Ellipse 1" cx="65" cy="65" r="65" transform="translate(119 384)" fill="#2ce999"/>
      <path id="check-solid" d="M32.434,134.91,1.4,103.875a4.775,4.775,0,0,1,0-6.752L8.151,90.37a4.774,4.774,0,0,1,6.752,0L35.81,111.276,80.59,66.5a4.775,4.775,0,0,1,6.752,0l6.752,6.752a4.775,4.775,0,0,1,0,6.752L39.186,134.91a4.775,4.775,0,0,1-6.752,0Z" transform="translate(136.253 347.902)" fill="#1b1c2b"/>
    </g>
    <g id="Text" transform="translate(0 24)">
      <text id="You_re_Account_Has_Been_Confirmed_" data-name="You&apos;re Account Has Been Confirmed!" transform="translate(283 405)" fill="#fff" font-size="30" font-family="Montserrat-Medium, Montserrat" font-weight="500"><tspan x="0" y="0">You&apos;re Account Has Been Confirmed!</tspan></text>
      <text id="We_re_going_to_redirect_you_to_the_main_app_right_now_" data-name="We&apos;re going to redirect you to the
main app right now!" transform="translate(283 437)" fill="#75768b" font-size="25" font-family="Montserrat-Regular, Montserrat"><tspan x="0" y="0">We&apos;re going to redirect you to the</tspan><tspan x="0" y="30">main app right now!</tspan></text>
    </g>
  </g>
</svg>
