<svg xmlns="http://www.w3.org/2000/svg" width="386.136" height="464.601" viewBox="0 0 386.136 464.601">
  <g id="Trash" transform="translate(-2453.576 -839)">
    <g id="Path_48" data-name="Path 48" transform="translate(2469 915)" fill="#ffeaf0">
      <path d="M 183.9580535888672 368.6011657714844 C 124.3381195068359 368.6011657714844 67.69540405273438 360.1241149902344 43.00990676879883 347.5071105957031 C 19.49761581420898 335.4897766113281 2.176244974136353 185.1541290283203 4.582720279693604 20.28011322021484 C 10.95444488525391 21.06091499328613 18.80306243896484 22.40285301208496 27.7461051940918 24.6900463104248 C 60.5813102722168 42.81484603881836 118.2844772338867 54.89920043945313 172.7576904296875 54.91410064697266 C 204.1628112792969 54.91410064697266 280.7280578613281 51.92414855957031 326.8340759277344 24.70084762573242 C 336.1908874511719 22.47740936279297 344.1557922363281 21.16215133666992 350.5244445800781 20.39050674438477 C 353.5281982421875 170.207275390625 339.9757690429688 332.6591186523438 313.4768981933594 348.0099487304688 C 291.5520629882813 360.7110290527344 241.92333984375 368.6011657714844 183.9580535888672 368.6011657714844 Z" stroke="none"/>
      <path d="M 330.8917541503906 45.33416748046875 C 282.4142456054688 70.9180908203125 212.0629730224609 74.91415405273438 172.7521514892578 74.91415405273438 C 118.4850311279297 74.89920043945313 60.6678466796875 63.25811767578125 24.36312866210938 45.45828247070313 C 23.97714233398438 181.8586883544922 36.81863403320313 305.6958618164063 54.85687255859375 330.9984130859375 C 74.60009765625 339.7104797363281 121.8761901855469 348.60107421875 183.9580535888672 348.60107421875 C 242.6552124023438 348.60107421875 284.5298461914063 340.3327331542969 301.42578125 331.7975769042969 C 319.6812133789063 307.2522583007813 332.092041015625 182.5978851318359 330.8917541503906 45.33416748046875 M -10.96450805664063 -0.77374267578125 C -3.652069091796875 -0.77374267578125 13.09246826171875 0.01959228515625 35.34597778320313 6.00750732421875 C 64.25241088867188 22.90679931640625 120.5937805175781 34.8997802734375 172.7631530761719 34.91415405273438 C 172.8108215332031 34.91415405273438 172.8623352050781 34.9141845703125 172.9100189208984 34.9141845703125 C 224.9508056640625 34.9141845703125 285.3075561523438 27.33444213867188 319.074951171875 6.00750732421875 C 342.5987243652344 0.120025634765625 358.9423828125 -0.67230224609375 366.0346374511719 -0.67236328125 C 368.6458740234375 -0.672393798828125 370.0021362304688 -0.565032958984375 370.0021362304688 -0.565032958984375 C 370.0021362304688 -0.565032958984375 380.1705932617188 332.4877014160156 323.5021362304688 365.3157958984375 C 295.9945678710938 381.2509460449219 240.4033203125 388.60107421875 183.9580078125 388.60107421875 C 124.1201629638672 388.60107421875 63.31997680664063 380.3486633300781 33.90768432617188 365.3157958984375 C -23.24929809570313 336.1023254394531 -15.01193237304688 -0.670562744140625 -15.01193237304688 -0.670562744140625 C -15.01193237304688 -0.670562744140625 -13.60116577148438 -0.77374267578125 -10.96450805664063 -0.77374267578125 Z" stroke="none" fill="#ff2f69"/>
    </g>
    <g id="Ellipse_10" data-name="Ellipse 10" transform="translate(2454 839)" fill="none" stroke="#ff2f69" stroke-width="40">
      <ellipse cx="192.5" cy="75.5" rx="192.5" ry="75.5" stroke="none"/>
      <ellipse cx="192.5" cy="75.5" rx="172.5" ry="55.5" fill="none"/>
    </g>
  </g>
</svg>
