<svg xmlns="http://www.w3.org/2000/svg" width="447.811" height="446.94" viewBox="0 0 447.811 446.94">
  <g id="Alerts" transform="translate(-18.09 -26.249)">
    <path id="Path_23" data-name="Path 23" d="M0,0C38.564-39.217,325.186-34.708,362,0s37.585,326.313,0,362S35.835,398.814,0,362-38.564,39.217,0,0Z" transform="translate(61 69)" fill="none" stroke="#3920cc" stroke-width="30"/>
    <path id="bell-regular" d="M237.131,195.522c-10.427-11.2-29.936-28.058-29.936-83.268,0-41.933-29.4-75.5-69.047-83.737V17.27a17.259,17.259,0,1,0-34.518,0V28.517c-39.645,8.236-69.047,41.8-69.047,83.737,0,55.21-19.51,72.064-29.936,83.268A16.862,16.862,0,0,0,0,207.238a17.285,17.285,0,0,0,17.324,17.27h207.13a17.282,17.282,0,0,0,17.324-17.27,16.853,16.853,0,0,0-4.647-11.717ZM36.444,198.6c11.452-15.095,23.973-40.115,24.032-86.036,0-.108-.032-.205-.032-.313a60.444,60.444,0,1,1,120.889,0c0,.108-.032.205-.032.313.059,45.927,12.58,70.947,24.032,86.036Zm84.444,77.714a34.534,34.534,0,0,0,34.524-34.54H86.365A34.534,34.534,0,0,0,120.889,276.318Z" transform="translate(121.001 112)" fill="#3920cc"/>
  </g>
</svg>
